<?xml version="1.0" encoding="UTF-8" standalone="no"?>
<!-- Generator: Adobe Illustrator 12.0.1, SVG Export Plug-In . SVG Version: 6.00 Build 51448)  -->

<svg
   version="1.1"
   id="Layer_1"
   width="485.51883"
   height="485.51883"
   viewBox="0 0 485.51884 485.51881"
   overflow="visible"
   enable-background="new 0 0 499.098 515.098"
   xml:space="preserve"
   sodipodi:docname="fnac.svg"
   inkscape:version="1.3.2 (091e20e, 2023-11-25, custom)"
   xmlns:inkscape="http://www.inkscape.org/namespaces/inkscape"
   xmlns:sodipodi="http://sodipodi.sourceforge.net/DTD/sodipodi-0.dtd"
   xmlns="http://www.w3.org/2000/svg"
   xmlns:svg="http://www.w3.org/2000/svg"><defs
   id="defs3" /><sodipodi:namedview
   id="namedview3"
   pagecolor="#ffffff"
   bordercolor="#666666"
   borderopacity="1.0"
   inkscape:showpageshadow="2"
   inkscape:pageopacity="0.0"
   inkscape:pagecheckerboard="0"
   inkscape:deskcolor="#d1d1d1"
   inkscape:zoom="0.55802759"
   inkscape:cx="236.54744"
   inkscape:cy="472.19888"
   inkscape:window-width="1920"
   inkscape:window-height="1009"
   inkscape:window-x="1912"
   inkscape:window-y="-8"
   inkscape:window-maximized="1"
   inkscape:current-layer="Layer_1" />
<path
   style="fill:#f9f9f9;stroke-width:0.94828"
   d="M 424.829,0 H 60.689838 C 27.219406,0 0,27.219405 0,60.689834 V 424.82895 c 0,33.47048 27.219406,60.68989 60.689838,60.68989 H 424.829 c 33.47043,0 60.68983,-27.21941 60.68983,-60.68989 V 60.689834 C 485.51883,27.219405 458.29943,0 424.829,0 Z"
   id="path2-8" /><g
   id="g3"
   transform="matrix(0.83996599,0,0,0.83996599,33.146746,26.427019)">
	<path
   fill="#ebb300"
   d="m 287.471,208.043 c 0,10.078 9.727,12.551 20.639,12.551 11.387,0 31.281,-4.162 31.281,-30.711 -5.695,3.994 -21.555,4.184 -31.992,5.705 -10.44,1.711 -19.928,2.564 -19.928,12.455 z"
   id="path1" />
	<path
   fill="#ebb300"
   d="m 144.246,137.674 h 14.207 v 13.693 h 0.625 c 7.5,-11.031 29.25,-16.035 41.75,-16.035 31.461,0 50,15.846 50,40.188 V 236 H 221.244 V 180.465 C 221.244,164.299 204.58,156 190.828,156 c -16.041,0 -30.916,8.49 -30.916,28.459 V 236 H 130.326 V 155.74 H 84.828 V 236 H 57.244 V 155.74 H 44.977 L 0,441.436 429.604,515.098 475.708,222.243 c -10.248,10.73 -26.371,16.42 -46.297,16.42 -36.232,0 -60.619,-20.92 -60.619,-50.398 0,-30.621 22.297,-53.252 61.316,-53.252 25.039,0 48.252,9.512 54.76,29.045 L 499.098,73.663 69.496,0 47.822,137.674 h 9.422 v -7.607 c 0,-17.307 15.584,-37.4 49.584,-37.4 22.668,0 50.668,6 50.668,36 h -26 C 131.496,118 114.828,114 106.828,114 c -11.332,0 -22,9.6 -22,17.777 v 5.896 h 45.498 13.92 z m 222.828,99.658 h -28.92 V 226.49 c -10.676,8.939 -27.674,12.172 -42.617,12.172 -23.248,0 -41.752,-9.318 -41.752,-29.479 0,-22.252 20.875,-27.578 41.752,-29.859 20.637,-2.473 39.854,-1.902 39.854,-12.934 0,-11.6 -9.965,-13.313 -21.826,-13.313 -12.809,0 -21.111,4.184 -22.299,14.834 H 257.58 c 1.898,-25.293 28.127,-32.9 55.646,-32.9 24.434,0 53.848,8.373 53.848,31.957 z"
   id="path2" />
	<path
   fill="#ebb300"
   d="m 429.875,155.361 c -21.135,0 -28.104,17.496 -28.104,31.951 0,14.072 6.736,31 27.406,31 15.33,0 24.156,-7.988 26.246,-19.971 h 24.045 l 4.102,-26.055 h -29.309 c -2.089,-11.03 -10.683,-16.925 -24.386,-16.925 z"
   id="path3" />
</g>
</svg>
