<?xml version="1.0" encoding="UTF-8" standalone="no"?>
<!-- Created with Inkscape (http://www.inkscape.org/) -->

<svg
   width="300mm"
   height="300mm"
   viewBox="0 0 300 300"
   version="1.1"
   id="svg1"
   xml:space="preserve"
   inkscape:version="1.4 (86a8ad7, 2024-10-11)"
   sodipodi:docname="drawing.svg"
   xmlns:inkscape="http://www.inkscape.org/namespaces/inkscape"
   xmlns:sodipodi="http://sodipodi.sourceforge.net/DTD/sodipodi-0.dtd"
   xmlns="http://www.w3.org/2000/svg"
   xmlns:svg="http://www.w3.org/2000/svg"><sodipodi:namedview
     id="namedview1"
     pagecolor="#ffffff"
     bordercolor="#000000"
     borderopacity="0.25"
     inkscape:showpageshadow="2"
     inkscape:pageopacity="0.0"
     inkscape:pagecheckerboard="0"
     inkscape:deskcolor="#d1d1d1"
     inkscape:document-units="mm"
     inkscape:zoom="0.35355339"
     inkscape:cx="840.04285"
     inkscape:cy="881.05504"
     inkscape:window-width="1920"
     inkscape:window-height="1129"
     inkscape:window-x="949"
     inkscape:window-y="1072"
     inkscape:window-maximized="1"
     inkscape:current-layer="layer1" /><defs
     id="defs1" /><g
     inkscape:label="Layer 1"
     inkscape:groupmode="layer"
     id="layer1"
     transform="translate(43.887215,0.23096618)"><rect
       style="fill:#101b1f;fill-opacity:1;stroke-width:0.273222"
       id="rect1"
       width="300"
       height="300"
       x="-43.887215"
       y="-0.23096618" /><path
       style="fill:#ffbf00;fill-opacity:1"
       d="m 102.80537,276.68656 c -8.668807,-0.23734 -17.261447,-1.35211 -25.795097,-3.34651 -12.06375,-2.81943 -24.11501,-7.62119 -34.75648,-13.84854 -5.95183,-3.48299 -12.16261,-7.87736 -17.47941,-12.36738 -6.6747,-5.63677 -12.9327,-12.09449 -18.2021406,-18.78305 -7.53018001,-9.55817 -13.57003,-19.86757 -18.1294594,-30.94517 -1.00739,-2.44755 -1.07769,-2.63168 -2.27913,-5.9695 -2.20799,-6.13423 -4.34887,-14.68619 -5.40478,-21.59 -1.15154,-7.52908 -1.59115,-13.07305 -1.59115,-20.066 0,-12.44321 1.73612,-24.38154 5.28211,-36.322 3.94575,-13.28661 10.2334694,-26.112097 18.3744294,-37.479557 4.11353,-5.74384 7.2098196,-9.37859 12.4710606,-14.63983 5.81975,-5.81975 11.35447,-10.45295 17.95638,-15.03154 11.5579,-8.01571 24.09694,-14.06849 37.592,-18.14621 3.36269,-1.01609 4.28195,-1.26532 7.32367,-1.98562 3.65882,-0.86643 5.85683,-1.31251 8.78182,-1.78225 6.44052,-1.03431 9.69617,-1.34385 16.093147,-1.5301 9.24016,-0.26904 19.87369,0.70126 29.14236,2.65922 9.18853,1.94102 17.758,4.74187 26.24667,8.57846 3.86285,1.74587 7.40182,3.65453 11.50533,6.20512 2.0045,1.24592 2.83268,1.89767 4.1673,3.27955 3.636,3.76474 4.99263,6.75906 5.13129,11.32576 0.0568,1.87214 -0.0439,2.71591 -0.48152,4.03056 -0.76994,2.31323 -2.2463,4.54118 -4.41143,6.65724 -1.48382,1.4502 -3.06931,2.56282 -4.9063,3.44302 -3.84354,1.84163 -7.97915,1.47468 -11.78141,-1.04535 -2.33435,-1.54714 -3.70753,-3.64651 -3.85147,-5.8883 -0.22075,-3.438 2.54493,-6.64684 5.72888,-6.64684 1.34231,0 2.31523,0.45222 3.39376,1.57744 1.36126,1.42019 1.95383,2.56114 2.78647,5.36523 0.24199,0.81491 0.55552,1.72597 0.69675,2.02456 0.61034,1.29043 1.82783,1.90984 3.10886,1.58165 1.9555,-0.50097 3.9328,-2.633 4.48831,-4.83953 0.39677,-1.57601 0.21326,-3.73043 -0.50109,-5.88283 -1.37528,-4.1438 -4.19904,-7.49754 -8.72917,-10.36751 -2.1779,-1.37976 -8.10722,-4.32315 -12.38259,-6.14686 -7.53785,-3.21537 -15.66352,-5.72523 -23.51064,-7.26196 -3.16459,-0.61973 -7.68277,-1.27367 -11.176,-1.61754 -6.01139,-0.59176 -13.63114,-0.6727 -19.600327,-0.20819 -7.44043,0.57899 -15.60246,1.95415 -22.90233,3.85864 -3.84116,1.00214 -9.22565,2.76744 -13.05984,4.28167 l -0.99483,0.39289 v 0.76886 c 0,0.42287 0.0565,1.25229 0.12567,1.84317 0.84638,7.23544 5.71512,15.4 12.23566,20.51838 0.86138,0.67614 0.905,0.71949 0.46567,0.46276 -3.66159,-2.13971 -7.528,-5.66147 -10.26652,-9.35135 -2.90662,-3.91639 -4.89881,-8.25338 -5.55962,-12.10327 -0.0711,-0.41403 -0.14133,-0.7649 -0.15613,-0.7797 -0.11478,-0.11478 -7.59494,3.56524 -10.17973,5.00813 -7.4596,4.1641 -14.56324,9.16139 -20.74333,14.59259 -1.34902,1.18555 -3.63303,3.28236 -4.09605,3.76033 l -0.37072,0.38269 0.10646,0.57838 c 0.29596,1.60796 0.95563,3.05496 2.32869,5.10804 2.07936,3.10918 4.41981,5.90753 9.48891,11.34533 2.79045,2.99342 5.78112,5.60479 8.79871,7.6828 4.66513,3.21256 9.74303,5.646 20.27766,9.71748 11.89626,4.597727 17.70426,7.767367 24.59567,13.422767 2.27038,1.86317 3.85813,3.30067 5.8852,5.32827 3.51767,3.51859 5.88033,6.29588 9.848027,11.57629 2.89707,3.85556 4.19512,5.3913 5.76026,6.81504 1.38115,1.25636 2.43298,2.00392 3.84707,2.7342 0.66762,0.34478 0.64355,0.37153 -0.0868,0.0964 -2.84868,-1.07295 -5.47557,-3.20806 -9.5457,-7.75862 -0.85384,-0.95462 -2.18475,-2.44028 -2.95758,-3.30147 -1.718127,-1.91455 -5.191477,-5.40943 -6.908487,-6.95131 -3.28002,-2.94547 -6.1521,-5.15639 -9.94833,-7.6582 -7.75272,-5.10921 -11.21807,-6.76619 -24.51099,-11.72005 -9.65718,-3.598937 -15.1487,-6.253527 -19.939,-9.638467 -1.31413,-0.92859 -1.46067,-1.04256 -3.175,-2.46929 -1.66686,-1.38721 -2.45014,-2.10062 -5.54274,-5.04828 -3.15741,-3.00944 -6.36082,-6.25585 -7.8346,-7.93975 -2.10348,-2.40339 -3.91164,-4.87614 -4.71318,-6.4455 -0.20175,-0.39501 -0.39212,-0.71838 -0.42306,-0.71859 -0.11642,-8e-4 -3.09085,3.37284 -4.7398,5.37595 -7.1292106,8.66036 -13.62188061,19.31376 -17.9765406,29.496477 l -0.81046,1.89515 0.16987,0.28791 c 0.71012,1.20356 2.59534,3.34718 4.25684,4.84031 3.43125,3.08354 6.84844,5.28825 10.81667,6.97872 0.4889496,0.20829 2.7559006,1.01498 5.0376606,1.79265 9.7801,3.33322 11.52762,3.99147 15.748,5.93193 0.823,0.3784 9.88325,4.90907 12.065,6.03323 6.17997,3.18425 11.54336,6.81018 17.86056,12.07466 4.65495,3.87923 7.55906,6.57635 16.0967,14.94944 8.9037,8.73209 12.93943,12.37464 17.77408,16.04248 4.45688,3.38124 8.286417,5.76276 12.608327,7.84087 10.28218,4.94401 21.7654,9.08767 33.74667,12.1773 4.06139,1.04733 4.7729,1.21073 9.84441,2.26081 6.7157,1.39052 15.18403,2.57467 21.73626,3.03946 7.45394,0.52874 15.37159,0.49839 21.844,-0.0837 5.23416,-0.47077 10.42962,-1.43827 13.83313,-2.57603 5.15486,-1.72321 8.69911,-4.01626 11.36484,-7.35282 0.30798,-0.38548 0.65723,-0.88027 0.77612,-1.09951 0.24228,-0.44683 1.61504,-4.92883 2.25467,-7.36141 0.54678,-2.07948 1.61998,-6.70208 2.03936,-8.78418 0.40292,-2.00036 1.10566,-6.40668 1.3921,-8.72874 1.19657,-9.70031 1.13695,-19.74142 -0.17291,-29.11831 -1.0306,-7.37784 -2.28202,-12.90524 -4.52356,-19.98022 -0.65505,-2.06753 -2.26489,-6.53589 -3.00497,-8.34078 -1.35809,-3.31205 -2.90342,-6.679627 -4.75939,-10.371657 -3.15872,-6.28356 -5.13072,-9.35967 -7.57457,-11.81551 -2.74609,-2.75956 -5.86707,-4.33456 -9.62902,-4.85926 -1.09448,-0.15265 -3.33322,-0.17348 -4.29335,-0.0399 -2.23793,0.31127 -4.13296,1.47177 -5.35602,3.28 -1.35339,2.00091 -1.46402,3.90861 -0.29125,5.02256 0.77595,0.73703 1.47151,0.90186 4.21948,0.99993 2.28585,0.0816 2.7291,0.15476 4.06661,0.67144 0.79489,0.30707 1.79709,0.88215 2.31065,1.32588 0.52113,0.45028 1.1584,1.39621 1.38508,2.05595 0.37545,1.09266 0.22719,2.59785 -0.37194,3.77629 -0.94228,1.85335 -2.82432,3.24957 -4.86169,3.606712 -0.73023,0.128 -2.06533,0.0689 -2.78271,-0.123242 -0.77221,-0.2068 -2.12207,-0.89405 -2.88032,-1.46646 -0.87817,-0.66294 -2.4273,-2.26468 -2.9474,-3.04751 -0.96629,-1.45439 -1.5856,-2.92635 -1.88759,-4.48633 -0.19095,-0.9864 -0.19233,-3.08394 -0.003,-4.12918 0.40408,-2.22743 1.41307,-4.52752 2.85003,-6.49693 0.78489,-1.07572 2.48601,-2.79412 3.55567,-3.5918 3.59245,-2.67898 7.71878,-3.68711 12.065,-2.94768 4.14395,0.70503 8.06555,3.1038 11.03246,6.74838 0.7928,0.97387 2.22985,3.1856 3.70051,5.69536 5.68897,9.70851 9.92445,19.759557 13.04039,30.945667 0.86155,3.09292 2.15308,8.98192 2.65987,12.12826 1.87369,11.63244 2.27816,21.61458 1.30951,32.31758 -0.72716,8.03463 -2.35956,16.2633 -4.87171,24.5575 -4.95481,16.359 -13.23902,31.86625 -24.15292,45.212 -8.59941,10.51553 -18.8302,19.64363 -29.76911,26.56055 -11.5972,7.33316 -24.87017,12.94309 -37.846,15.99592 -5.23329,1.23124 -8.8131,1.88547 -13.80067,2.52217 -6.31055,0.80558 -13.10187,1.15065 -19.304,0.98084 z m 11.176,-6.72427 c 5.6507,-0.40046 11.83291,-1.25685 16.56757,-2.29501 9.22477,-2.02272 16.96592,-4.65452 25.89277,-8.8029 13.01963,-6.05034 24.4857,-14.06334 34.58713,-24.17105 7.14,-7.14443 12.88651,-14.46884 18.0367,-22.98925 1.14449,-1.89345 3.12917,-5.42007 3.12917,-5.56031 0,-0.0463 -0.09,-0.0143 -0.19996,0.0711 -5.07168,3.93709 -9.84753,6.68433 -16.01371,9.21166 -3.28841,1.34782 -8.595,3.03927 -12.78467,4.07503 -2.00416,0.49547 -7.25566,1.54735 -9.86366,1.9757 -7.22307,1.18636 -18.20513,2.25051 -27.17801,2.63353 -3.36861,0.1438 -11.61477,0.19627 -14.43566,0.0919 -6.76325,-0.25032 -12.58461,-0.85622 -21.19558,-2.2061 -2.53446,-0.3973 -9.35259,-1.67392 -13.136757,-2.45971 -6.35067,-1.31873 -7.68378,-1.59699 -10.414,-2.17373 -5.68028,-1.19993 -13.27091,-2.6765 -16.42533,-3.19514 -7.50082,-1.23326 -11.93783,-1.8444 -17.22967,-2.37318 -12.62148,-1.26118 -23.32786,-1.51371 -32.34266,-0.76286 -5.46987,0.45558 -10.542791,1.24564 -14.3901606,2.24113 -2.1121,0.5465 -2.12363,0.55017 -2.09682,0.6687 0.0716,0.31652 2.96506,4.57091 4.848,7.12821 5.5856206,7.58604 13.0450406,15.46972 20.0349406,21.17442 l 0.5787,0.4723 1.10067,-0.24275 c 1.32369,-0.29194 4.81713,-0.92924 6.68867,-1.22021 8.66228,-1.34671 16.69416,-1.46682 25.34185,-0.37899 6.12336,0.77029 11.22264,1.79732 20.41314,4.11133 3.69936,0.93144 4.99024,1.20137 7.07701,1.47987 1.63435,0.21812 4.98667,0.30667 6.56166,0.17333 0.62865,-0.0532 1.35255,-0.11414 1.60867,-0.13538 0.38111,-0.0316 0.3273,-0.009 -0.29633,0.12337 -1.16532,0.2477 -2.69472,0.41457 -4.699,0.5127 -3.43163,0.168 -5.1005,-0.0161 -12.7,-1.40103 -6.58163,-1.19943 -11.94031,-1.96301 -16.59467,-2.36463 -6.3962,-0.55194 -13.09576,-0.49106 -18.75367,0.1704 -2.18013,0.25487 -5.95089,0.85919 -7.95866,1.27549 -1.67793,0.34791 -3.85234,0.88764 -3.85234,0.95623 0,0.11444 3.28051,2.45626 5.75734,4.10994 11.79385,7.87428 23.55885,13.0685 37.38033,16.50333 4.34627,1.08011 7.3299,1.70111 10.795,2.24682 5.03643,0.79317 8.84534,1.19799 13.588997,1.44426 2.19564,0.11399 10.38119,0.0369 12.573,-0.11847 z m 29.29467,-51.53077 c 10.79679,-0.31518 19.48828,-0.97691 26.75467,-2.03697 5.07063,-0.73973 8.30488,-1.35522 12.59178,-2.39625 3.2341,-0.78537 4.64195,-1.19079 7.81288,-2.24985 6.75481,-2.25606 12.61848,-5.19226 17.272,-8.64886 1.20459,-0.89475 2.16606,-1.68251 2.05354,-1.68251 -0.0466,0 -0.49908,0.13619 -1.0056,0.30266 -4.54072,1.4923 -8.99474,2.38609 -14.93327,2.99668 -8.62878,0.88721 -18.23408,0.78501 -28.23633,-0.30042 -5.91641,-0.64205 -9.10756,-1.12299 -15.41182,-2.32277 -5.36083,-1.02023 -10.19988,-2.16975 -16.08419,-3.82081 -9.41771,-2.64248 -19.15115,-6.20984 -27.34733,-10.02294 -7.955207,-3.70099 -12.931117,-6.86955 -19.811997,-12.61588 -3.9255,-3.27825 -6.44633,-5.63874 -14.77566,-13.83586 -5.98833,-5.89327 -7.28346,-7.15372 -9.05801,-8.81544 -5.77265,-5.40563 -11.06528,-9.69717 -15.91733,-12.90661 -3.56674,-2.35927 -4.58879,-2.92822 -12.75411,-7.1 -8.69439,-4.44208 -9.67617,-4.86685 -17.72589,-7.66904 -7.0327906,-2.44819 -8.7245706,-3.05819 -9.8120406,-3.53794 -4.08148,-1.80056 -7.62392001,-4.02089 -10.81973,-6.78158 -1.16671,-1.00786 -2.91576,-2.74452 -3.53223,-3.50722 -0.17879,-0.2212 -0.35695,-0.40217 -0.39591,-0.40217 -0.10102,0 -1.5484398,4.5622 -2.1845894,6.88571 -2.07404,7.57545 -3.43438,15.82019 -3.9488,23.93296 -0.18805,2.9657 -0.25134,8.27914 -0.13412,11.26066 0.0925,2.35332 0.24832,4.92319 0.30176,4.97751 0.0133,0.0135 1.04813,0.17331 2.29972,0.35518 5.1287794,0.74528 11.00001939,2.02968 17.4309394,3.8132 3.07129,0.85178 2.98452,0.82603 6.4744606,1.92123 7.41001,2.32539 12.12829,4.48505 17.86721,8.17823 1.63472,1.052 2.72721,1.81401 6.51933,4.54721 5.1083,3.68187 6.86576,4.8544 9.271,6.18535 2.42361,1.34112 4.23108,2.1431 6.985,3.09924 1.57142,0.54558 1.28392,0.51012 -0.86234,-0.10638 -4.2684,-1.22607 -8.16855,-3.0708 -13.31933,-6.2999 -1.16416,-0.72983 -3.0903,-1.93806 -4.28031,-2.68496 -6.67241,-4.1879 -11.28067,-6.46265 -16.46302,-8.12655 -7.154531,-2.29711 -18.24336061,-4.65702 -26.5430004,-5.64884 -1.7871996,-0.21357 -4.8400996,-0.48797 -4.8886796,-0.43939 -0.11002,0.11002 0.70035,6.2335 1.16921,8.83487 0.32718,1.81534 0.72605,3.67439 1.35778,6.32834 2.0854396,8.7611 5.5118394,17.88969 9.96285939,26.543 0.94155,1.83047 2.07384001,3.91977 2.23015001,4.11505 0.0528,0.066 0.47875,-0.0277 1.45055,-0.31906 4.29882,-1.28876 10.3495106,-2.46975 15.0918006,-2.94567 5.27275,-0.52915 7.65985,-0.63677 14.13933,-0.63741 5.57726,-5.6e-4 7.19455,0.0437 12.446,0.34075 8.95682,0.50662 19.82316,1.82039 28.74433,3.47527 1.14089,0.21164 2.89349,0.53604 3.89467,0.72091 1.00118,0.18486 2.75378,0.52783 3.89467,0.76215 1.14088,0.23432 3.44593,0.70704 5.12233,1.05049 1.6764,0.34344 4.47683,0.9299 6.22317,1.30324 1.74634,0.37334 5.74684,1.19117 8.889997,1.8174 9.17007,1.82699 14.96018,2.78061 20.1505,3.31872 5.17234,0.53625 8.05612,0.72056 14.30866,0.91451 1.08116,0.0335 3.74681,-0.009 7.53534,-0.11924 z M 54.444833,186.71191 c 0.0611,-0.0245 0.13414,-0.0214 0.16228,0.007 0.0281,0.0281 -0.0219,0.0481 -0.11113,0.0445 -0.0986,-0.004 -0.11869,-0.0241 -0.0512,-0.0512 z M 176.63471,78.393033 c -1.02852,-0.21414 -1.94637,-0.94215 -2.43034,-1.92768 -0.21348,-0.43474 -0.23666,-0.56902 -0.23666,-1.37094 0,-0.82304 0.0199,-0.9311 0.26876,-1.45633 0.45713,-0.96493 1.26439,-1.62587 2.31436,-1.89486 1.43947,-0.36877 3.05425,0.41046 3.74088,1.80521 0.22066,0.44823 0.27566,0.67557 0.30676,1.26806 0.0493,0.93975 -0.0849,1.5102 -0.50261,2.13569 -0.73492,1.10056 -2.18874,1.70577 -3.46115,1.44085 z m 9.32219,-9.78261 c -1.01477,-0.27289 -1.84893,-0.96066 -2.27962,-1.87955 -0.20104,-0.42895 -0.22691,-0.58566 -0.22691,-1.37491 0,-0.83648 0.017,-0.92534 0.27914,-1.45779 0.35331,-0.71768 0.88496,-1.25084 1.59667,-1.60122 0.74891,-0.36868 1.7691,-0.43631 2.48866,-0.16496 1.0405,0.39239 1.7483,1.06595 2.12169,2.01907 0.14384,0.36718 0.19132,0.66433 0.19293,1.20761 0.002,0.63333 -0.0301,0.78943 -0.2638,1.28891 -0.4824,1.03087 -1.40549,1.78206 -2.46129,2.00296 -0.57512,0.12032 -0.88252,0.1118 -1.44747,-0.0401 z"
       id="path1" /></g></svg>
